# xmcd CD Database Entry
#
# Track frame offsets:
# 150
# 20309
# 36853
# 52664
# 70446
# 88136
# 105720
# 120894
# 134393
# 146558
# 161697
# 176362
# 190269
# 206415
#
# Disc length: 2973 seconds
#
# Revision: 1
# Processed by: cddbd v1.4PL0 Copyright (c) Steve Scherf et al.
# Submitted via: tcd 2.0b
#
DISCID=b90b9b0e
DTITLE=Johnny Cash - American Recordings IV
DYEAR=1900
DGENRE=
TTITLE0=The man comes around
TTITLE1=Hurt
TTITLE2=Give my love to rose
TTITLE3=Bridge over troubled water
TTITLE4=I hung my head
TTITLE5=The first time ever I saw your face
TTITLE6=Personal Jesus
TTITLE7=In my life
TTITLE8=Sam Hall
TTITLE9=Danny Boy
TTITLE10=Deserado
TTITLE11=I'm so lonesome I could cry
TTITLE12=The streets of Laredo
TTITLE13=Tear stained letter
EXTD=The Man comes around
EXTT0=
EXTT1=Reznor
EXTT2=
EXTT3=performed by Cash - Fiona Apple
EXTT4=Sting
EXTT5=MacColl
EXTT6=Gore
EXTT7=Lennon - McCartney
EXTT8=
EXTT9=Traditional
EXTT10=performed by Cash - Doney
EXTT11=performed by Cash - Nick Cave
EXTT12=Traditional
EXTT13=
PLAYORDER=
